<svg width="65.000000" height="44.000000" viewBox="0 0 65 44" fill="none" xmlns="http://www.w3.org/2000/svg" xmlns:xlink="http://www.w3.org/1999/xlink">
	<desc>
			Created with Pixso.
	</desc>
	<defs>
		<clipPath id="clip23_16535">
			<rect id="24/ favourites" width="24.000000" height="24.000000" transform="translate(20.500000 0.000000)" fill="white" fill-opacity="0"/>
		</clipPath>
	</defs>
	<g clip-path="url(#clip23_16535)">
		<path id="Vector" d="M32.5 21C32.37 21 32.25 20.96 32.13 20.9C31.74 20.68 22.5 15.36 22.5 8.62C22.5 7.44 22.86 6.29 23.54 5.33C24.23 4.37 25.19 3.66 26.29 3.28C27.4 2.91 28.59 2.9 29.71 3.25C30.82 3.6 31.8 4.3 32.5 5.25C33.19 4.3 34.17 3.6 35.28 3.25C36.4 2.9 37.59 2.91 38.7 3.28C39.8 3.66 40.76 4.37 41.45 5.33C42.13 6.29 42.5 7.44 42.5 8.62C42.5 11.49 40.86 14.43 37.62 17.38C36.16 18.71 34.56 19.89 32.86 20.9C32.75 20.96 32.62 21 32.5 21ZM28.05 4.5C26.97 4.5 25.93 4.93 25.17 5.7C24.41 6.48 23.98 7.53 23.98 8.62C23.98 13.8 30.83 18.34 32.5 19.37C34.16 18.34 41.01 13.8 41.01 8.62C41.01 7.67 40.69 6.74 40.09 6C39.5 5.27 38.66 4.76 37.74 4.57C36.82 4.38 35.86 4.53 35.03 4.97C34.2 5.42 33.54 6.15 33.18 7.03C33.12 7.16 33.03 7.28 32.91 7.36C32.79 7.45 32.64 7.49 32.5 7.49C32.35 7.49 32.2 7.45 32.08 7.36C31.96 7.28 31.87 7.16 31.81 7.03C31.5 6.27 30.98 5.63 30.31 5.18C29.64 4.73 28.85 4.49 28.05 4.5Z" fill="#202020" fill-opacity="1.000000" fill-rule="nonzero"/>
	</g>
</svg>
