<svg width="35.000000" height="44.000000" viewBox="0 0 35 44" fill="none" xmlns="http://www.w3.org/2000/svg" xmlns:xlink="http://www.w3.org/1999/xlink">
	<desc>
			Created with Pixso.
	</desc>
	<defs>
		<clipPath id="clip23_16531">
			<rect id="24/ login" width="24.000000" height="24.000000" transform="translate(5.500000 0.000000)" fill="white" fill-opacity="0"/>
		</clipPath>
	</defs>
	<g clip-path="url(#clip23_16531)">
		<path id="Vector" d="M17.49 12C14.73 12 12.49 9.76 12.49 7C12.49 4.23 14.73 2 17.49 2C20.25 2 22.49 4.23 22.49 7C22.49 9.76 20.25 12 17.49 12ZM21.86 14L22.2 14C22.91 14 23.6 14.26 24.14 14.75C24.67 15.23 25.01 15.9 25.1 16.62L25.48 19.75C25.51 20.03 25.49 20.31 25.41 20.58C25.33 20.86 25.19 21.11 25.01 21.32C24.83 21.53 24.6 21.7 24.35 21.82C24.1 21.93 23.83 22 23.55 22L10.44 22C10.16 22 9.89 21.93 9.64 21.82C9.39 21.7 9.16 21.53 8.98 21.32C8.8 21.11 8.66 20.86 8.58 20.58C8.5 20.31 8.48 20.03 8.51 19.75L8.89 16.62C8.98 15.9 9.32 15.23 9.85 14.75C10.39 14.26 11.08 14 11.79 14L12.13 14" stroke="#202020" stroke-opacity="1.000000" stroke-width="1.500000" stroke-linejoin="round" stroke-linecap="round"/>
	</g>
</svg>
