<svg width="68" height="79" fill="none" xmlns="http://www.w3.org/2000/svg"><path d="M34.5 55.781c-.494 0-.987 0-1.234-.247l-12.344-7.406c-.74-.494-1.235-1.234-1.235-2.222V31.094c0-.988.494-1.728 1.235-2.222l12.344-7.406c.247-.247.74-.247 1.234-.247s.987 0 1.234.247l12.344 7.406c.74.494 1.234 1.234 1.234 2.222v14.812c0 .988-.493 1.728-1.234 2.222l-12.344 7.406c-.247.247-.74.247-1.234.247ZM23.5 45l11 7 11-6.5V31.832L34.5 25l-11 7v13Z" fill="#202020"/><path stroke="#202020" stroke-width="4" d="M2 21v35M66 35v21M33.313 1.732l-30.311 17.5M65.313 57.732l-30.311 17.5M33.313 75.232l-30.311-17.5M65.313 19.232l-30.311-17.5"/></svg>